<svg width="945" height="557" viewBox="0 0 945 557" fill="none" xmlns="http://www.w3.org/2000/svg">
<path d="M913.436 86.2998L912.136 71.4998L926.836 71.3998L922.336 55.4998L939.236 54.4998L934.636 42.6998L938.336 41.2998L944.936 58.1998L927.536 59.1998L932.136 75.3998L916.536 75.4998L917.436 85.8998L913.436 86.2998Z" fill="#EF4B4B"/>
<path d="M882.036 70.2999C880.336 71.3999 899.436 68.7999 907.836 46.0999C908.536 44.1999 899.836 38.0999 897.736 40.5999C895.636 43.0999 901.736 56.8999 882.036 70.2999Z" fill="#7BB30C"/>
<path d="M889.936 129C884.436 129 879.936 124.5 879.936 119C879.936 113.5 884.436 109 889.936 109C895.436 109 899.936 113.5 899.936 119C899.936 124.5 895.436 129 889.936 129ZM889.936 112C886.036 112 882.936 115.1 882.936 119C882.936 122.9 886.036 126 889.936 126C893.836 126 896.936 122.9 896.936 119C896.936 115.1 893.836 112 889.936 112Z" fill="#0080FF"/>
<path d="M899.036 148L896.236 147C896.236 146.9 900.236 136.6 912.436 137.9L912.136 140.9C902.236 139.8 899.136 147.9 899.036 148Z" fill="#FFAE1F"/>
<path d="M824.236 41C826.169 41 827.736 39.433 827.736 37.5C827.736 35.567 826.169 34 824.236 34C822.303 34 820.736 35.567 820.736 37.5C820.736 39.433 822.303 41 824.236 41Z" fill="#FF5050"/>
<path d="M865.536 3.7998C866.365 3.7998 867.036 3.12823 867.036 2.2998C867.036 1.47138 866.365 0.799805 865.536 0.799805C864.708 0.799805 864.036 1.47138 864.036 2.2998C864.036 3.12823 864.708 3.7998 865.536 3.7998Z" fill="#FFC91F"/>
<path d="M849.836 43.9L846.936 43L851.936 27.5L838.236 21.5L844.036 6.9L827.736 2.9L828.436 0L848.136 4.9L842.136 19.9L855.636 25.9L849.836 43.9Z" fill="#FFAE1F"/>
<path d="M802.336 45.4001C793.536 39.6001 796.436 27.6001 796.536 27.1001L799.436 27.8001C799.336 27.9001 796.936 38.3001 803.936 42.9001L802.336 45.4001Z" fill="#FFAE1F"/>
<path d="M86.3 525.436L71.5 524.136L71.4 538.836L55.5 534.336L54.5 551.236L42.7 546.636L41.3 550.336L58.2 556.936L59.2 539.536L75.4001 544.136L75.5 528.536L85.9001 529.436L86.3 525.436Z" fill="#EF4B4B"/>
<path d="M70.2999 494.036C71.3999 492.336 68.7999 511.436 46.0999 519.836C44.1999 520.536 38.0999 511.836 40.5999 509.736C43.0999 507.636 56.8999 513.736 70.2999 494.036Z" fill="#7BB30C"/>
<path d="M129 501.936C129 496.436 124.5 491.936 119 491.936C113.5 491.936 109 496.436 109 501.936C109 507.436 113.5 511.936 119 511.936C124.5 511.936 129 507.436 129 501.936ZM112 501.936C112 498.036 115.1 494.936 119 494.936C122.9 494.936 126 498.036 126 501.936C126 505.836 122.9 508.936 119 508.936C115.1 508.936 112 505.836 112 501.936Z" fill="#0080FF"/>
<path d="M148 511.036L147 508.236C146.9 508.236 136.6 512.236 137.9 524.436L140.9 524.136C139.8 514.236 147.9 511.136 148 511.036Z" fill="#FFAE1F"/>
<path d="M41 436.236C41 438.169 39.433 439.736 37.5 439.736C35.567 439.736 34 438.169 34 436.236C34 434.303 35.567 432.736 37.5 432.736C39.433 432.736 41 434.303 41 436.236Z" fill="#FF5050"/>
<path d="M3.80005 477.536C3.80005 478.365 3.12848 479.036 2.30005 479.036C1.47162 479.036 0.800049 478.365 0.800049 477.536C0.800049 476.708 1.47162 476.036 2.30005 476.036C3.12848 476.036 3.80005 476.708 3.80005 477.536Z" fill="#FFC91F"/>
<path d="M43.9 461.836L43 458.936L27.5 463.936L21.5 450.236L6.9 456.036L2.9 439.736L-3.0598e-08 440.436L4.9 460.136L19.9 454.136L25.9 467.636L43.9 461.836Z" fill="#FFAE1F"/>
<path d="M45.4001 414.336C39.6001 405.536 27.6001 408.436 27.1001 408.536L27.8001 411.436C27.9001 411.336 38.3001 408.936 42.9001 415.936L45.4001 414.336Z" fill="#FFAE1F"/>
</svg>
