<svg xmlns="http://www.w3.org/2000/svg" width="40" height="40" viewBox="0 0 40 40" fill="none"><path d="M31.2 2H8.8C7.3 2 6 3.7 6 5.8V36.2C6 38.3 7.3 40 8.8 40H31.2C32.7 40 34 38.3 34 36.2V5.8C34 3.7 32.7 2 31.2 2Z" fill="white"/><path d="M34.6 0H5.4C2.4 0 0 2.4 0 5.4V34.6C0 37.6 2.4 40 5.4 40H19.8L19.8 25.7H16.1C15.6 25.7 15.2 25.3 15.2 24.8L15.2 20.2C15.2 19.7 15.6 19.3 16.1 19.3H19.8V14.9C19.8 9.7 23 6.9 27.6 6.9H31.3C31.8 6.9 32.2 7.3 32.2 7.8V11.7C32.2 12.2 31.8 12.6 31.3 12.6L29 12.6C26.5 12.6 26 13.7 26 15.5V19.3H31.5C32.1 19.3 32.5 19.8 32.4 20.3L31.9 24.9C31.8 25.4 31.4 25.7 31 25.7H26.1L26 40H34.6C37.6 40 40 37.6 40 34.6V5.4C40 2.4 37.6 0 34.6 0Z" fill="#475993"/></svg>