<svg width="676" height="523" viewBox="0 0 676 523" fill="none" xmlns="http://www.w3.org/2000/svg">
<path d="M371.066 99.5396C271.466 105.967 280.393 53.0979 230.227 62.0191C182.336 70.5317 190.646 125.943 151.268 152.464C102.182 185.524 69.4989 157.306 28.0781 186.785C-13.7775 216.569 -2.13448 285.964 19.7895 327.107C45.9882 376.264 103.957 417.158 168.925 424.257C237.675 431.766 249.666 394.384 332.978 390.526C439.947 385.573 469.239 444.933 550.052 429.653C625.055 415.475 687.037 347.873 674.336 305.525C664.78 273.677 618.041 272.977 611.368 240.763C602.739 199.086 676.633 179.484 672.677 136.866C668.787 94.9959 568.868 49.6901 504.994 42.3689C457.241 36.897 456.408 94.0262 371.066 99.5396Z" fill="#E8F6FE"/>
<g clip-path="url(#clip0)">
<path fill-rule="evenodd" clip-rule="evenodd" d="M131.766 263.628C133.989 261.925 135.301 259.956 134.704 259.218C134.106 258.48 131.829 259.26 129.606 260.963C127.383 262.666 126.071 264.635 126.668 265.373C127.262 266.103 129.552 265.327 131.766 263.628ZM140.899 265.527C141.364 264.953 141.522 264.326 141.25 264.127C140.975 263.92 140.372 264.222 139.903 264.788C139.437 265.361 139.28 265.989 139.551 266.187C139.827 266.395 140.433 266.1 140.899 265.527ZM160.152 249.89C160.869 249.07 161.173 248.196 160.838 247.928C160.502 247.66 159.653 248.107 158.936 248.928C158.218 249.748 157.914 250.621 158.241 250.893C158.581 251.149 159.431 250.702 160.152 249.89ZM118.122 258.881C117.505 257.944 119.954 254.416 122.354 252.689C124.755 250.962 126.71 250.165 128.121 251.767C130.413 254.4 119.092 260.235 118.122 258.881ZM113.345 249.062C113.643 249.496 115.864 249.424 117.703 248.513C119.551 247.599 120.007 246.693 119.99 246.029C119.973 245.365 119.102 244.38 117.686 244.558C116.283 244.741 111.937 247.824 113.345 249.062ZM105.342 222.453C105.558 224.012 105.002 225.468 104.099 225.713C103.193 225.95 102.284 224.883 102.06 223.328C101.844 221.769 102.399 220.313 103.302 220.069C104.208 219.832 105.117 220.899 105.342 222.453ZM118.544 226.034C117.541 226.019 116.087 228.4 115.602 230.03C115.117 231.66 115.903 233.18 116.48 233.562C117.057 233.944 118.494 233.943 119.419 232.314C120.353 230.681 120.666 225.929 118.544 226.034ZM131.817 228.711C130.918 228.559 128.288 231.164 127.15 234.287C126.011 237.409 126.569 238.936 127.393 239.667C128.227 240.393 130.51 240.5 132.021 238.686C133.539 236.868 135.071 228.492 131.817 228.711ZM153.645 239.557C152.784 239.397 150.601 242.238 149.577 244.15C148.553 246.062 148.072 248.797 149.261 249.14C150.449 249.483 152.088 247.361 152.906 245.773C153.733 244.2 154.513 239.753 153.645 239.557ZM143.903 233.625C142.759 233.399 140.112 236.794 139.241 239.524C138.357 242.25 138.243 244.27 140.317 244.958C143.718 246.083 145.576 234.017 143.903 233.625ZM67.8149 214.276C66.4425 218.041 65.5995 221.885 66.9303 223.159C69.7652 225.853 84.7226 222.722 85.35 226.391C85.3261 227.795 70.1274 228.104 67.7763 227.496C66.1797 227.087 65.5942 225.86 65.4193 224.904C65.4034 224.803 65.31 224.738 65.205 224.737C65.1 224.737 65.0082 224.81 64.9784 224.903C64.236 227.573 63.9928 233.033 65.4888 234.279C66.162 234.843 72.8408 237.437 79.6013 236.711C90.1665 235.578 102.37 231.247 103.144 236.259C103.904 240.054 77.9476 241.735 63.2432 237.277C63.0238 237.212 62.7994 237.248 62.6072 237.397C62.4235 237.542 62.3294 237.745 62.3393 237.967C62.5151 241.344 65.291 247.741 65.1313 249.931C67.5937 251.001 73.1342 252.418 79.2127 251.894C88.8809 251.062 100.379 248.227 105.71 247.449C112.357 246.481 107.947 251.195 103.431 252.302C99.0681 253.376 76.8104 259.462 67.1342 258.015C66.8757 257.978 66.6369 258.05 66.4474 258.228C66.2579 258.406 66.1666 258.636 66.2003 258.887C66.767 263.434 71.6122 271.205 79.0142 271.513C81.9984 271.637 87.8125 271.108 93.4146 268.939C102.862 265.286 112.554 259.265 113.17 260.557C113.409 260.999 110.722 263.907 107.411 265.369C101.634 267.926 93.3883 269.466 91.5205 270.113C89.8028 270.7 82.1759 273.382 78.7345 273.245C78.6381 273.241 78.5473 273.293 78.5088 273.39C78.4666 273.479 78.4911 273.576 78.5721 273.637C85.2941 278.899 85.6409 282.887 93.7409 284.103C100.947 285.136 120.137 268.916 121.897 269.831C123.653 270.757 121.543 275.323 115.435 278.45C109.336 281.573 97.6602 284.679 95.9435 284.91C98.497 287.182 103.432 296.937 112.701 294.602C125.745 290.924 131.2 272.787 134.019 274.283C134.882 274.738 132.688 277.712 132.345 278.189C127.98 284.186 117.779 295.614 116.271 297.545C120.482 294.041 130.131 302.596 137.829 294.623C141.337 290.984 141.591 274.215 146.723 273.709C148.187 273.25 150.521 276.624 142.521 288.295C144.676 287.948 147.661 291.768 150.364 291.046C153.067 290.323 154.839 287.389 156.906 286.203C160.988 283.857 163.665 283.235 165.387 279.88C167.178 276.382 166.234 273.336 164.229 270.757C163.029 269.225 157.383 265.633 154.497 262.963C146.625 258.359 114.9 234.331 67.7957 214.324L67.8149 214.276ZM100.199 217.787C97.1099 218.828 96.415 211.297 92.2507 205.115C88.1301 198.981 82.5071 193.581 80.4697 195.859C79.6402 196.909 85.8868 209.083 84.0353 211.759C82.7733 213.229 74.5779 204.755 72.0767 205.639C71.5826 205.861 69.4575 209.811 67.9199 213.94L67.9247 213.928C102.516 225.131 145.468 253.09 157.014 260.075C164.014 262.123 174.614 271.902 182.937 268.647C195.064 263.906 194.34 251.587 196.348 247.119C192.98 252.916 172.274 261.061 169.91 255.992C169.566 255.412 171.378 253.862 174.409 252.699C179.265 250.84 186.222 249.302 190.579 247.745C193.372 246.744 195.285 244.514 195.753 241.706C196.471 237.417 195.657 230.505 187.306 223.892C187.205 223.811 187.063 223.798 186.942 223.855C186.813 223.915 186.744 224.036 186.75 224.162C186.891 231.448 181.928 238.565 180.273 240.496C178.7 242.468 168.034 246.544 166.339 244.245C165.674 243.341 167.353 240.163 170.622 236.863C175.638 231.787 183.394 225.773 184.431 222.165C186.14 216.207 176.904 207.28 171.175 204.094C166.262 213.668 165.582 221.377 164.129 224.074C162.679 226.778 157.197 236.391 155.903 235.891C154.609 235.39 159.721 223.351 160.732 220.941C161.734 218.535 168.35 206.237 166.175 199.666C165.261 197.11 153.095 189.091 146.408 190.108C149.219 195.976 144.53 202.984 150.325 207.632C150.265 211.02 146.983 228.398 144.719 228.737C143.757 228.99 146.193 208.214 145.125 202.844C144.628 200.863 143.593 199.796 143.452 198.667C143.303 197.541 143.817 190.106 140.306 188.5C136.795 186.893 127.162 185.85 124.688 186.703C128.188 191.961 135.105 221.153 131.855 224.919C129.89 227.104 128.828 221.208 128.948 218.217C129.054 215.242 128.614 192.512 120.747 184.961C117.864 183.06 104.124 183.328 101.681 183.732C110.453 189.318 121.991 224.212 114.226 223.599C112.884 223.487 112.455 195.495 100.113 185.938C98.2942 184.853 88.7823 187.855 86.8372 188.875C90.8361 195.51 106.105 214.319 100.445 217.731L100.199 217.787Z" fill="#C9F0FF"/>
</g>
<path d="M596.557 73.9808C595.296 70.2693 593.94 68.2422 590.051 64.9814C590.732 67.29 593.172 72.7613 596.557 73.9808ZM562.314 91.0776C564.781 94.2722 572.717 110.088 572.666 118.204C568.236 113.971 563.184 95.424 562.314 91.0776ZM596.952 74.1832C600.773 73.0741 603.246 73.0044 608.192 74.2787C605.881 75.0505 599.916 76.2156 596.952 74.1832ZM595.248 77.0518C597.489 76.6533 602.268 76.0771 608.503 77.7771C605.063 78.7382 599.315 80.1624 595.248 77.0518ZM519.683 222.869L516.534 221.259C518.995 216.946 521.477 212.546 523.976 208.073C514.777 197.773 502.664 175.011 501.834 159.452C512.353 168.984 521.539 197.946 524.368 207.366C526.347 203.825 528.342 200.237 530.34 196.615C524.191 186.443 509.952 161.01 509.889 147.111C512.626 158.318 532.425 171.479 531.261 194.951C533.077 191.651 534.911 188.321 536.747 184.962C530.283 174.095 518.049 144.22 517.581 137.973C522.452 148.306 536.293 174.805 537.399 183.765C538.67 181.43 539.949 179.092 541.226 176.738C536.079 171.129 520.39 145.462 523.247 131.626C526.766 135.298 539.863 165.718 541.668 175.925C542.849 173.749 544.029 171.572 545.214 169.383C540.577 160.994 533.096 128.039 531.34 122.874C536.036 131.657 546.71 156.186 546.009 167.915C547.22 165.669 548.431 163.424 549.653 161.167C545.555 152.863 539.832 117.814 539.865 113.918C542.617 127.048 553.081 142.993 550.535 159.527C552.359 156.135 554.183 152.744 556.011 149.339C549.951 138.599 545.866 113.558 547.557 105.991C552.156 115.961 555.59 140.707 556.309 148.782C557.846 145.915 559.383 143.049 560.92 140.183C559.261 134.199 553.317 107.231 551.749 101.724C556.259 105.716 561.813 125.605 561.257 139.552L566.651 129.475C562.767 115.466 557.224 102.935 558.096 95.3073C560.524 98.5753 566.424 121.354 566.859 129.075C570.298 122.648 573.722 116.246 577.124 109.908C572.723 105.245 566.844 91.6229 566.001 87.4008C568.367 90.4681 576.815 101.234 577.472 109.266C578.887 106.633 580.29 104.011 581.694 101.411C574.229 95.974 571.803 86.4557 570.4 83.0362C575.241 87.1016 579.996 95.9332 581.871 101.08L583.493 98.0695C580.944 92.447 574.649 82.7606 575.112 78.3859C578.605 81.9771 581.684 91.0766 583.555 97.9528C584.772 95.6875 585.992 93.4375 587.201 91.1982C584.073 87.0718 580.239 84.4206 579.831 73.7379C581.333 75.323 587.156 84.6082 587.461 90.7075C588.433 88.9092 589.404 87.1174 590.369 85.3386C587.963 83.9954 583.6 75.0987 582.666 70.9474C584.596 71.8088 589.859 82.1489 590.623 84.8674C591.453 83.3393 592.281 81.8177 593.105 80.3091C591.361 78.3341 585.99 72.6946 585.059 68.602C587.815 70.4645 592.435 76.1368 593.261 80.0216L594.947 76.931C590.156 75.3475 588.108 70.0134 586.961 66.736C591.767 70.6314 594.034 74.661 595.039 76.7667C595.819 75.3446 596.59 73.9268 597.366 72.5177C596.632 74.0055 595.89 75.4977 595.147 76.9898C594.577 78.1424 593.998 79.2993 593.417 80.4627C596.988 78.694 604.786 79.1657 608.028 80.3596C603.933 82.0201 595.713 80.7673 593.373 80.5492L593.356 80.5795L593.354 80.586C592.574 82.1451 591.794 83.7042 591.01 85.2763C593.163 84.3657 605.548 82.5322 607.431 83.6302C603.343 85.2929 593.082 86.8984 590.857 85.579C589.928 87.4278 588.996 89.2897 588.056 91.1492C593.277 87.8422 604.517 87.2092 606.722 87.5127C597.527 93.3276 593.108 91.7157 587.844 91.5622C586.708 93.811 585.567 96.0728 584.415 98.3453C591.231 95.9329 600.551 93.2164 605.538 93.9779C602.158 96.8405 590.522 97.3211 584.35 98.4751L582.827 101.483C588.231 100.068 598.228 98.8725 604.343 100.432C600.699 101.254 591.41 104.723 582.628 101.879C581.332 104.428 580.025 106.988 578.713 109.561C585.894 105.698 599.356 106.325 603.208 106.474C599.248 108.186 584.796 111.196 578.271 110.417C576.92 113.063 575.561 115.714 574.199 118.371C581.306 113.907 598.266 111.387 602.251 111.543C598.194 113.295 580.379 119.642 573.998 118.774C572.216 122.244 570.425 125.718 568.625 129.197C576.074 125.004 597.153 117.27 601.133 117.352C595.356 122.342 582.028 125.039 568.315 129.794C566.659 132.996 564.993 136.208 563.328 139.414C574.788 131.32 593.659 124.824 599.401 126.138C594.105 127.956 569.883 137.882 562.77 140.485C561.318 143.278 559.866 146.071 558.414 148.864C566.444 144.445 587.718 133.877 598.233 131.959C592.979 137.541 570.488 148.269 557.895 149.861C556.303 152.918 554.713 155.968 553.125 159.012C565.505 148.612 583.915 147.789 596.013 142.682C592.861 144.877 561.929 159.572 551.727 161.687L548.526 167.802C558.778 160.938 583.761 155.871 593.403 154.674C588.219 156.176 557.846 168.402 547.375 170.003L544.074 176.309C554.642 171.922 585.792 165.489 590.722 166.196C581.063 176.14 551.982 178.346 543.4 177.594L539.928 184.211C549.132 180.129 577.611 176.311 588.655 174.395C583.255 177.535 552.297 184.578 539.108 185.778L534.104 195.314C552.849 181.855 574.659 189.957 585.419 185.813C573.94 193.598 545.234 196.707 532.895 197.625C530.976 201.281 529.075 204.906 527.195 208.488C537.094 205.256 565.92 196.384 579.711 199.355C566.343 207.525 540.675 210.801 526.731 209.366C524.361 213.932 522.002 218.437 519.683 222.869Z" fill="#477ABE"/>
<path fill-rule="evenodd" clip-rule="evenodd" d="M617.899 177.138L627.434 166.634C606.241 176.313 596.229 176.869 583.637 180.862C579.979 182.025 576.203 184.209 572.855 185.554C575.666 187.139 578.956 189.286 580.796 190.442C578.547 189.814 568.672 186.911 566.718 186.669L566.558 186.652L566.551 186.65C562.923 186.302 558.734 184.816 552.363 186.64C546.093 188.433 539.206 203.438 526.938 214.459L527.902 219.298L522.414 218.126C518.126 221.244 513.242 223.761 507.617 225.132C496.719 227.796 485.791 227.076 480.036 231.014C478.578 232.017 476.093 234.505 473.543 237.851C479.842 237.503 486.87 239.732 486.87 239.732C486.87 239.732 478.836 239.679 469.87 243.292C464.157 252.939 460.709 265.75 472.526 273.21C500.69 244.493 534.928 212.586 617.899 177.138ZM477.412 277.023C498.94 292.797 526.899 277.718 530.139 275.739C530.139 275.739 527.975 268.24 527.441 265.554C527.441 265.554 529.634 271.297 531.627 274.118C540.36 271.532 554.642 262.813 558.32 259.278C554.485 256.287 545.026 234.214 542.905 231.459C542.905 231.459 559.975 246.285 565.708 250.169C579.591 245.197 593.309 230.293 597.911 226.616C594.932 222.82 578.658 212.95 578.658 212.95C582.238 213.946 593.748 221.369 599.419 225.485C600.539 224.68 601.902 223.761 603.405 222.758C598.283 219.429 589.952 215.219 588.349 214.92C592.079 215.576 601.016 219.12 605.862 221.111C611.258 217.48 617.679 212.991 621.661 208.467C618.959 207.834 600.973 200.123 598.708 197.623C598.708 197.623 617.615 206.344 621.346 206.171C626.61 203.167 632.257 191.572 632.257 191.572C631.595 191.354 615.436 186.626 609.076 185.556C609.076 185.556 624.166 187.594 632.234 189.308C632.234 189.308 633.161 187.142 632.616 183.919C630.229 181.991 620.105 177.715 617.89 177.142C529.654 221.773 502.137 249.838 477.412 277.023Z" fill="#FDB714"/>
<path fill-rule="evenodd" clip-rule="evenodd" d="M480.96 79.925H496.674C506.487 79.925 514.555 87.2771 515 96.6281L528.474 379.56C528.747 385.358 527.886 390.588 523.938 395.004C519.989 399.419 514.756 401.726 508.669 401.726H432.979L480.96 79.925Z" fill="#3BAFAF"/>
<path fill-rule="evenodd" clip-rule="evenodd" d="M501.26 162.482V412.186C501.26 422.831 492.129 431.545 480.96 431.545H164.301C153.131 431.545 144 422.831 144 412.186V162.482H501.26Z" fill="url(#paint0_linear)"/>
<path fill-rule="evenodd" clip-rule="evenodd" d="M164.301 79.925H480.96C492.122 79.925 501.26 88.6394 501.26 99.2842V162.482H144V99.2842C144 88.6394 153.131 79.925 164.301 79.925Z" fill="#51C3C7"/>
<path d="M207.702 325.33H163.791V367.211H207.709V325.33H207.702ZM209.418 325.33V367.211H253.336V325.33H209.418ZM255.044 325.33V367.211H298.962V325.33H255.044ZM300.671 325.33V367.211H344.589V325.33H300.671ZM346.298 325.33V367.211H390.216V325.33H346.298ZM391.924 325.33V367.211H435.842V325.33H391.924ZM437.551 325.33V367.211H481.469V325.33H437.551ZM253.329 281.82H209.418V323.701H253.336V281.82H253.329ZM298.962 281.82H255.044V323.701H298.962V281.82ZM344.589 281.82H300.671V323.701H344.589V281.82ZM390.216 281.82H346.298V323.701H390.216V281.82ZM435.842 281.82H391.924V323.701H435.842V281.82ZM481.469 281.82H437.551V323.701H481.469V281.82ZM207.702 238.31H163.791V280.191H207.709V238.31H207.702ZM253.329 238.31H209.418V280.191H253.336V238.31H253.329ZM298.962 238.31H255.044V280.191H298.962V238.31ZM344.589 238.31H300.671V280.191H344.589V238.31ZM390.216 238.31H346.298V280.191H390.216V238.31ZM435.842 238.31H391.924V280.191H435.842V238.31ZM481.469 238.31H437.551V280.191H481.469V238.31ZM253.329 194.8H209.418V236.681H253.336V194.8H253.329ZM298.962 194.8H255.044V236.681H298.962V194.8ZM344.589 194.8H300.671V236.681H344.589V194.8ZM390.216 194.8H346.298V236.681H390.216V194.8ZM435.842 194.8H391.924V236.681H435.842V194.8ZM481.469 194.8H437.551V236.681H481.469V194.8ZM163.791 368.84V410.721H207.709V368.84H163.791ZM209.418 410.721H253.336V368.84H209.418V410.721ZM255.044 410.721H298.962V368.84H255.044V410.721ZM300.671 410.721H344.589V368.84H300.671V410.721ZM346.298 368.84V412.35H300.671H298.955H255.037H253.321H209.418H207.702H162.075V368.84V367.204V325.323V323.687V281.806V280.17V236.66H162.929H207.702V193.15H208.556H253.329H254.183H255.037H298.955H299.809H300.664H344.582H345.436H346.29H390.208H391.063H391.917H435.835H436.689H437.544H483.17V236.66V238.296V280.177V281.813V323.694V325.33V368.84H437.544H435.828H391.91H390.194H346.298ZM163.791 323.701H207.709V281.82H163.791V323.701Z" fill="#CCCCCB"/>
<path fill-rule="evenodd" clip-rule="evenodd" d="M371.782 205.349H455.986C461.98 205.349 466.883 210.024 466.883 215.74C466.883 221.456 461.98 226.132 455.986 226.132H371.782C365.788 226.132 360.885 221.456 360.885 215.74C360.885 210.024 365.788 205.349 371.782 205.349Z" fill="#F68A4E"/>
<path fill-rule="evenodd" clip-rule="evenodd" d="M189.275 379.389H273.479C279.473 379.389 284.376 384.065 284.376 389.781C284.376 395.497 279.473 400.172 273.479 400.172H189.275C183.281 400.172 178.378 395.497 178.378 389.781C178.378 384.065 183.281 379.389 189.275 379.389Z" fill="#65BE6C"/>
<path d="M481.469 325.33H437.551V367.211H481.469V325.33Z" fill="#DDD5EA"/>
<path fill-rule="evenodd" clip-rule="evenodd" d="M219.03 261.242L229.754 271.469C230.645 272.318 232.095 272.318 232.985 271.469L243.709 261.242L244.399 260.585C247.794 257.347 247.794 252.056 244.399 248.818C241.003 245.58 235.447 245.58 232.059 248.818L231.37 249.475L230.68 248.818C227.285 245.58 221.736 245.58 218.341 248.818C214.945 252.056 214.945 257.354 218.341 260.585L219.03 261.242Z" fill="#F4AE96"/>
<path fill-rule="evenodd" clip-rule="evenodd" d="M324.461 289.891L326.945 297.065C327.203 297.818 327.928 298.304 328.761 298.29L336.133 298.133C336.959 298.112 337.677 298.591 337.942 299.338C338.208 300.084 337.949 300.878 337.282 301.35L330.893 305.82C330.218 306.293 329.96 307.094 330.233 307.847L332.673 314.48C332.946 315.226 332.695 316.02 332.027 316.492C331.36 316.965 330.491 316.972 329.816 316.513L323.384 312.098C322.709 311.632 321.827 311.646 321.159 312.125L315.294 316.39C314.634 316.869 313.765 316.883 313.083 316.431C312.408 315.972 312.128 315.185 312.38 314.432L314.792 307.237C315.043 306.477 314.763 305.683 314.074 305.232L308.008 301.227C307.326 300.775 307.039 299.988 307.29 299.235C307.534 298.482 308.238 297.982 309.063 297.982L316.988 297.948C317.821 297.941 318.532 297.441 318.768 296.682L320.886 289.946C321.123 289.186 321.819 288.686 322.652 288.679C323.492 288.659 324.203 289.138 324.461 289.891Z" fill="#477ABE"/>
<path d="M444.895 259.476C443.459 258.107 443.459 255.896 444.895 254.527C446.331 253.158 448.65 253.158 450.085 254.527L456.819 260.955L471.456 246.997C472.891 245.627 475.21 245.627 476.646 246.997C478.081 248.366 478.081 250.577 476.646 251.946L459.417 268.375C457.982 269.744 455.663 269.744 454.227 268.375L444.895 259.476Z" fill="#F68A4E"/>
<path fill-rule="evenodd" clip-rule="evenodd" d="M453.1 358.626C441.593 384.824 463.767 407.962 471.377 412.473C471.125 413.432 470.881 414.506 470.63 415.677C466.904 433.332 469.381 449.049 467.622 466.012C470.257 467.546 473.939 466.368 474.349 465.862L476.172 459.132C476.739 457.086 488.605 411.091 490.342 399.57C487.421 387.042 479.266 368.422 473.329 353.903C466.574 357.237 460.221 358.462 454.809 358.62C454.227 358.626 453.66 358.633 453.1 358.626Z" fill="#FAB69A"/>
<path fill-rule="evenodd" clip-rule="evenodd" d="M467.651 465.601C467.22 466.854 466.524 471.673 466.581 472.002C466.639 472.337 471.929 475.124 474.356 474.206C476.782 473.282 479.919 465.656 480.027 464.883C480.127 464.13 476.545 463.308 474.743 463.972L474.349 465.855C473.939 466.368 470.264 467.546 467.622 466.005L467.665 465.595L467.651 465.601Z" fill="#6F4D39"/>
<path fill-rule="evenodd" clip-rule="evenodd" d="M431.356 457.62C430.552 459.112 428.305 463.822 428.205 464.486C428.104 465.15 432.942 468.004 435.771 467.491C438.599 466.978 446.352 462.945 446.352 462.945L443.61 460.152L438.212 459.646L437.285 461.104C434.371 461.268 431.198 459.66 431.198 458.065C431.248 457.935 431.299 457.777 431.356 457.62Z" fill="#6F4D39"/>
<path fill-rule="evenodd" clip-rule="evenodd" d="M431.205 458.071C431.205 459.673 434.378 461.282 437.292 461.111L438.218 459.653L441.485 454.519L470.637 415.677C470.888 414.506 471.132 413.432 471.383 412.473C463.774 407.969 441.592 384.824 453.107 358.627C447.127 358.551 442.461 357.21 439.905 356.142C429.152 394.066 444.572 407.394 452.367 411.186C444.047 418.621 438.348 443.278 431.205 458.071Z" fill="#E6AB91"/>
<path fill-rule="evenodd" clip-rule="evenodd" d="M449.876 278.048C465.267 277.206 464.915 308.011 467.277 312.207L463.358 313.076C462.984 312.18 462.31 307.34 462.202 305.341C461.829 307.443 461.52 312.508 461.462 313.535C458.067 314.357 451.571 314.562 447.407 314.432C447.271 312.871 447.78 308.107 448.024 306.854C447.299 309.181 446.359 312.44 446.251 313.918C444.665 314.049 442.037 313.953 439.948 312.625C439.604 308.579 440.236 296.942 440.401 295.045C439.704 295.97 438.441 299.118 438.168 300.015L434.356 300.631C441.068 288.987 441.449 278.513 449.876 278.048Z" fill="#1F2531"/>
<path fill-rule="evenodd" clip-rule="evenodd" d="M485.511 265.172C485.03 268.848 485.073 277.918 485.425 285.304C488.533 285.188 492.596 284.503 496.207 281.779C493.336 269.471 489.064 257.861 488.404 256.053C486.416 255.821 480.321 256.594 478.792 257.203L479.086 261.893C479.632 262.865 482.396 264.042 485.511 265.172Z" fill="#FAB69A"/>
<path fill-rule="evenodd" clip-rule="evenodd" d="M496.207 281.779C492.596 284.496 488.533 285.188 485.425 285.304C485.619 289.439 485.913 293.047 486.265 294.888C481.333 299.303 473.121 300.878 465.246 301.939C466.05 306.813 466.524 310.872 467.278 312.214L463.358 313.083C462.985 312.187 462.31 307.347 462.202 305.348C461.829 307.45 461.52 312.515 461.463 313.542C458.068 314.363 451.571 314.569 447.408 314.439C447.271 312.878 447.781 308.114 448.025 306.861C447.3 309.188 446.359 312.447 446.252 313.925C444.665 314.055 442.038 313.96 439.949 312.632C439.863 311.625 439.834 310.153 439.849 308.483C431.758 315.89 420.021 329.807 418.966 332.134C418.5 333.168 417.552 336.214 416.461 340.007C417.452 341.533 419.584 343.491 424.235 344.614C425.427 341.91 426.439 339.5 427.028 337.892C428.047 336.611 438.628 327.596 440.351 324.625C439.683 337.898 434.551 385.05 437.537 414.315C443.553 409.811 487.894 406.901 496.702 399.529C487.772 379.978 472.051 348.105 465.72 335.988C472.166 332.504 472.166 323.954 470.013 319.347C478.498 316.581 495.209 307.217 498.856 300.248C498.82 294.758 497.7 288.173 496.207 281.779Z" fill="#477ABE"/>
<path fill-rule="evenodd" clip-rule="evenodd" d="M424.228 344.621C419.576 343.491 417.444 341.54 416.454 340.014C414.3 347.523 411.587 357.963 410.912 361.529C409.821 361.871 405.995 364.836 405.578 366.218C405.162 367.601 404.387 374.392 405.083 375.631C405.37 374.05 407.646 369.36 408.708 368.046C414.25 367.772 415.398 364.569 415.571 362.638C416.927 360.386 421.17 351.542 424.228 344.621Z" fill="#FAB69A"/>
<path fill-rule="evenodd" clip-rule="evenodd" d="M444.156 186.797H474.873C477.385 186.797 479.445 184.833 479.445 182.437C479.445 180.041 477.385 178.076 474.873 178.076H444.156C441.643 178.076 439.583 180.041 439.583 182.437C439.583 184.84 441.636 186.797 444.156 186.797Z" fill="#F8A285"/>
<path fill-rule="evenodd" clip-rule="evenodd" d="M398.529 186.797H429.246C431.758 186.797 433.818 184.833 433.818 182.437C433.818 180.041 431.758 178.076 429.246 178.076H398.529C396.016 178.076 393.956 180.041 393.956 182.437C393.956 184.84 396.009 186.797 398.529 186.797Z" fill="#5BC2A8"/>
<path fill-rule="evenodd" clip-rule="evenodd" d="M224.062 103.884C231.478 103.884 237.493 109.614 237.493 116.685C237.493 123.757 231.485 129.493 224.062 129.493C216.647 129.493 210.639 123.764 210.639 116.685C210.631 109.621 216.647 103.884 224.062 103.884Z" fill="url(#paint1_linear)"/>
<path fill-rule="evenodd" clip-rule="evenodd" d="M382.693 106.458C390.109 106.458 396.124 112.188 396.124 119.259C396.124 126.331 390.116 132.067 382.693 132.067C375.278 132.067 369.27 126.338 369.27 119.259C369.27 112.195 375.278 106.458 382.693 106.458Z" fill="url(#paint2_linear)"/>
<path fill-rule="evenodd" clip-rule="evenodd" d="M421.399 106.458C428.815 106.458 434.83 112.188 434.83 119.259C434.83 126.331 428.822 132.067 421.399 132.067C413.984 132.067 407.976 126.338 407.976 119.259C407.968 112.195 413.984 106.458 421.399 106.458Z" fill="url(#paint3_linear)"/>
<path fill-rule="evenodd" clip-rule="evenodd" d="M170.388 186.797H201.105C203.618 186.797 205.678 184.833 205.678 182.437C205.678 180.041 203.618 178.076 201.105 178.076H170.388C167.876 178.076 165.815 180.041 165.815 182.437C165.815 184.84 167.876 186.797 170.388 186.797Z" fill="#F8A285"/>
<path fill-rule="evenodd" clip-rule="evenodd" d="M216.015 186.797H246.732C249.244 186.797 251.305 184.833 251.305 182.437C251.305 180.041 249.244 178.076 246.732 178.076H216.015C213.503 178.076 211.442 180.041 211.442 182.437C211.45 184.84 213.503 186.797 216.015 186.797Z" fill="#CCCCCB"/>
<path fill-rule="evenodd" clip-rule="evenodd" d="M261.642 186.797H292.359C294.871 186.797 296.932 184.833 296.932 182.437C296.932 180.041 294.871 178.076 292.359 178.076H261.642C259.13 178.076 257.069 180.041 257.069 182.437C257.077 184.84 259.13 186.797 261.642 186.797Z" fill="#CCCCCB"/>
<path fill-rule="evenodd" clip-rule="evenodd" d="M307.268 186.797H337.985C340.497 186.797 342.558 184.833 342.558 182.437C342.558 180.041 340.497 178.076 337.985 178.076H307.268C304.756 178.076 302.695 180.041 302.695 182.437C302.702 184.84 304.756 186.797 307.268 186.797Z" fill="#CCCCCB"/>
<path fill-rule="evenodd" clip-rule="evenodd" d="M352.902 186.797H383.619C386.131 186.797 388.191 184.833 388.191 182.437C388.191 180.041 386.131 178.076 383.619 178.076H352.902C350.389 178.076 348.329 180.041 348.329 182.437C348.329 184.84 350.382 186.797 352.902 186.797Z" fill="#CCCCCB"/>
<path fill-rule="evenodd" clip-rule="evenodd" d="M223.933 105.466C230.307 105.466 235.476 110.394 235.476 116.473C235.476 122.552 230.307 127.481 223.933 127.481C217.558 127.481 212.39 122.552 212.39 116.473C212.382 110.394 217.551 105.466 223.933 105.466Z" fill="white"/>
<path fill-rule="evenodd" clip-rule="evenodd" d="M223.933 125.811C228.642 125.811 232.49 122.141 232.49 117.651V70.4372C232.49 65.9465 228.635 62.2773 223.933 62.2773C219.224 62.2773 215.376 65.9465 215.376 70.4372V117.651C215.376 122.141 219.224 125.811 223.933 125.811Z" fill="#3BAFAF"/>
<path fill-rule="evenodd" clip-rule="evenodd" d="M262.762 103.672C270.177 103.672 276.193 109.402 276.193 116.473C276.193 123.545 270.184 129.281 262.762 129.281C255.346 129.281 249.338 123.551 249.338 116.473C249.338 109.402 255.346 103.672 262.762 103.672Z" fill="url(#paint4_linear)"/>
<path fill-rule="evenodd" clip-rule="evenodd" d="M262.762 105.466C269.136 105.466 274.305 110.394 274.305 116.473C274.305 122.552 269.136 127.481 262.762 127.481C256.387 127.481 251.219 122.552 251.219 116.473C251.219 110.394 256.387 105.466 262.762 105.466Z" fill="white"/>
<path fill-rule="evenodd" clip-rule="evenodd" d="M262.762 125.811C267.471 125.811 271.319 122.141 271.319 117.651V70.4372C271.319 65.9465 267.471 62.2773 262.762 62.2773C258.053 62.2773 254.205 65.9465 254.205 70.4372V117.651C254.205 122.141 258.06 125.811 262.762 125.811Z" fill="#3BAFAF"/>
<path fill-rule="evenodd" clip-rule="evenodd" d="M382.492 108.546C388.867 108.546 394.035 113.475 394.035 119.554C394.035 125.633 388.867 130.561 382.492 130.561C376.118 130.561 370.949 125.633 370.949 119.554C370.949 113.475 376.118 108.546 382.492 108.546Z" fill="white"/>
<path fill-rule="evenodd" clip-rule="evenodd" d="M382.492 128.891C387.202 128.891 391.049 125.222 391.049 120.731V73.5175C391.049 69.0269 387.202 65.3577 382.492 65.3577C377.783 65.3577 373.936 69.0269 373.936 73.5175V120.731C373.936 125.222 377.79 128.891 382.492 128.891Z" fill="#3BAFAF"/>
<path fill-rule="evenodd" clip-rule="evenodd" d="M421.328 108.546C427.703 108.546 432.871 113.475 432.871 119.554C432.871 125.633 427.703 130.561 421.328 130.561C414.954 130.561 409.785 125.633 409.785 119.554C409.785 113.475 414.954 108.546 421.328 108.546Z" fill="white"/>
<path fill-rule="evenodd" clip-rule="evenodd" d="M421.327 128.891C426.036 128.891 429.884 125.222 429.884 120.731V73.5175C429.884 69.0269 426.036 65.3577 421.327 65.3577C416.618 65.3577 412.771 69.0269 412.771 73.5175V120.731C412.771 125.222 416.618 128.891 421.327 128.891Z" fill="#3BAFAF"/>
<g clip-path="url(#clip1)">
<path fill-rule="evenodd" clip-rule="evenodd" d="M146.004 152.157L145.734 148.457C144.293 149.191 142.336 149.564 140.36 149.538L140.543 153.39C142.034 154.194 145.299 152.846 146.004 152.157Z" fill="#F7A099"/>
<path fill-rule="evenodd" clip-rule="evenodd" d="M131.03 158.526L130.803 158.488C130.746 158.659 130.627 159.26 130.627 159.26C137.51 160.253 141.675 157.793 142.714 157.761L142.814 158.52L147.583 157.704L147.357 156.142L147.093 156.022C147.074 155.193 146.765 153.055 145.998 152.157C145.281 152.853 142.412 154.023 140.933 153.125C140.939 152.758 140.461 152.024 140.228 151.879L139.87 152.195C139.763 152.17 139.391 152.195 138.869 152.593C137.881 153.352 136.592 154.706 135.144 155.503C133.446 156.433 131.627 156.8 131.13 157.616C131.011 157.831 130.992 158.337 131.03 158.526Z" fill="#0B3D60"/>
<path fill-rule="evenodd" clip-rule="evenodd" d="M198 84.5099C196.729 52.2202 181.875 27.4384 178.313 23.1689C177.672 24.5352 169.587 32.1316 168.36 33.2385C167.561 36.1291 162.269 57.1095 164.484 83.169C168.649 82.3467 189.33 83.9659 198 84.5099Z" fill="#F68A4E"/>
<path fill-rule="evenodd" clip-rule="evenodd" d="M173.921 13.8141C175.884 14.2948 175.243 17.6029 174.827 18.8426L177.105 19.9495C180.219 14.4466 180.635 2.00514 172.757 1.86599C166.591 -4.99675 157.865 9.78503 152.957 3.38402C153.844 10.9425 157.789 12.7642 159.878 13.1563C159.884 13.1563 159.884 13.1563 159.891 13.1563C162.451 13.1373 165.541 12.0431 166.736 11.5434C167.177 11.9798 167.711 14.2379 167.793 14.7819C168.278 14.7249 169.725 14.2822 170.102 14.0924C170.19 14.5415 170.429 17.8812 170.366 18.9817C170.983 17.5333 171.587 13.2385 173.921 13.8141Z" fill="#B02948"/>
<path fill-rule="evenodd" clip-rule="evenodd" d="M176.878 33.9786C181.591 33.1501 188.027 38.2671 190.393 54.7693C191.783 62.1064 190.802 74.004 190.657 75.4398C187.216 77.2045 167.182 79.0134 153.397 75.8066C153.013 76.572 149.754 79.4372 145.91 79.3866C142.065 79.336 139.297 75.9331 139.297 75.9331C138.655 76.4581 133.943 82.5492 133.389 82.3721C132.508 82.0874 137.328 72.391 142.078 71.1324C144.513 70.4872 148.301 70.6327 154.693 72.6188C158.556 70.7845 168.453 67.4005 179.948 66.2304C175.33 59.2791 168.434 40.1962 176.878 33.9786Z" fill="#F4BBA9"/>
<path fill-rule="evenodd" clip-rule="evenodd" d="M176.161 58.6972C178.42 57.1855 183.466 54.3392 190.148 53.2133C187.612 37.9445 181.434 33.1754 176.872 33.9786C170.65 38.5643 172.77 50.1456 176.161 58.6972Z" fill="#E97B43"/>
<path fill-rule="evenodd" clip-rule="evenodd" d="M170.366 18.9754C170.423 17.8812 170.19 14.5352 170.102 14.0861C169.718 14.2759 168.271 14.7186 167.793 14.7756C167.711 14.2253 167.176 11.9735 166.736 11.5371C165.54 12.0431 162.451 13.131 159.89 13.15C159.884 13.15 159.884 13.15 159.878 13.15C159.324 15.4081 157.959 23.4157 159.425 24.472C159.985 24.8451 161.872 24.3834 162.231 24.5415C162.59 24.6997 164.081 28.5643 164.861 28.9375C165.49 28.8553 166.553 28.267 167.705 27.4574C168.277 28.3429 169.454 30.3986 170.215 31.7964C172.839 29.3296 177.728 24.6174 178.313 23.4979C177.91 21.9925 177.331 20.3417 177.105 19.9369L174.827 18.83C175.242 17.5902 175.884 14.2885 173.921 13.8015C171.587 13.2386 170.983 17.5333 170.366 18.9754Z" fill="url(#paint5_linear)"/>
<path fill-rule="evenodd" clip-rule="evenodd" d="M167.705 27.4573C168.001 27.9127 168.448 28.6717 168.919 29.494C170.543 27.957 172.405 23.7508 172.569 22.4604C172.166 23.7318 169.825 25.9646 167.705 27.4573Z" fill="#D49682"/>
<path d="M156.418 80.8286C157.003 80.778 157.519 81.2081 157.569 81.7963C157.62 82.3846 157.192 82.9032 156.607 82.9538L123.707 86.5781C123.222 86.6224 122.788 86.3314 122.618 85.9013L113.822 58.6338C113.608 58.0835 113.885 57.4636 114.433 57.2486C114.98 57.0335 115.597 57.3118 115.811 57.8621L125.745 83.7065L156.418 80.8286Z" fill="#0B3D60"/>
<path fill-rule="evenodd" clip-rule="evenodd" d="M131.42 90.2151L115.257 150.664L122.505 151.708C122.505 151.708 141.582 130.114 148.345 106.167C151.8 106.464 178.703 109.285 179.15 107.875C179.597 106.464 177.168 99.5193 172.242 97.451C167.315 95.3827 152.832 92.2012 152.832 92.2012C152.832 92.2012 145.992 92.1253 145.923 93.6053C145.841 95.0854 131.42 90.2151 131.42 90.2151Z" fill="#CBE2F1"/>
<path fill-rule="evenodd" clip-rule="evenodd" d="M198 84.51C198.013 87.7611 197.126 107.869 179.647 108.381C162.168 108.893 151.057 101.031 144.797 100.86C145.759 118.236 144.124 130.184 146.055 148.28C144.092 149.418 140.965 149.823 138.19 149.342C136.498 139.557 122.606 105.592 122.291 87.35C127.834 85.5157 160.684 82.1697 165.459 82.4607L198 84.51Z" fill="#EAF7FE"/>
<path fill-rule="evenodd" clip-rule="evenodd" d="M119.919 154.288L120.919 151.486L115.388 150.689L114.426 153.188C115.47 154.535 119 154.624 119.919 154.288Z" fill="#F7A099"/>
<path fill-rule="evenodd" clip-rule="evenodd" d="M103.667 154.004L103.478 153.877C103.359 154.01 103 154.51 103 154.51C108.889 158.223 113.69 157.666 114.652 158.065L114.439 158.798L119.126 160L119.554 158.482L119.359 158.267C119.68 157.502 120.258 155.427 119.919 154.289C118.981 154.636 115.886 154.529 114.898 153.112C115.055 152.777 114.91 151.917 114.753 151.689L114.3 151.828C114.212 151.759 113.86 151.632 113.224 151.784C112.016 152.075 110.286 152.79 108.65 152.922C106.725 153.08 104.913 152.676 104.133 153.22C103.925 153.359 103.705 153.821 103.667 154.004Z" fill="#0B3D60"/>
</g>
<g clip-path="url(#clip2)">
<path fill-rule="evenodd" clip-rule="evenodd" d="M117.973 327.54C118.291 327.54 118.586 327.62 118.84 327.765C118.586 327.62 118.291 327.54 117.973 327.54ZM125.154 322.224C125.13 322.56 123.737 330.503 123.585 332.064C121.961 331.736 120.202 331.52 118.331 331.496V331.215C119.175 331.047 119.812 330.295 119.812 329.398C119.812 328.741 119.469 328.157 118.952 327.829C120.369 327.42 121.659 326.612 122.757 325.555C124.095 324.434 125.154 322.224 125.154 322.224Z" fill="#E7A588"/>
<path fill-rule="evenodd" clip-rule="evenodd" d="M130.105 506.803C131.554 509.589 135.893 517.66 145.446 517.908L147.596 522.888C147.596 522.888 139.539 523.392 137.541 522.184C135.543 520.975 131.737 515.842 131.737 515.842C131.387 516.547 131.283 521.175 131.339 522.888H129.739C128.131 519.221 128.449 509.501 130.105 506.803Z" fill="#1D4593"/>
<path fill-rule="evenodd" clip-rule="evenodd" d="M97.6957 497.988C102.456 480.975 111.357 460.174 114.74 452.36C97.5683 425.01 95.3153 414.298 97.6957 402.953C100.076 391.608 108.929 386.604 109.43 383.937L109.454 383.921C111.301 384.834 114.231 385.539 117.495 385.755C109.996 392.208 107.886 398.173 107.424 411.832C106.923 426.451 119.955 443.721 123.713 449.133C122.98 453.169 122.025 461.343 122.805 472.408C117.089 481.887 108.125 494.986 101.987 503.048C102.839 504.706 104.367 510.694 110.123 512.504C100.872 510.43 98.245 503.545 97.6957 497.988Z" fill="#E7A588"/>
<path fill-rule="evenodd" clip-rule="evenodd" d="M97.6953 497.988C98.1252 502.328 100.171 507.708 107.4 509.333C108.148 509.501 108.952 509.63 109.812 509.718L111.818 514.642C109.127 514.89 101.15 514.097 100.028 513.064C98.9054 512.031 96.5091 506.523 96.2145 504.994C95.1398 505.194 92.9107 507.844 92.3773 508.509L91 507.204C92.64 505.658 93.9934 500.206 97.6953 497.988Z" fill="#1D4593"/>
<path fill-rule="evenodd" clip-rule="evenodd" d="M130.105 507.124C125.496 493.913 123.49 482.072 122.813 472.424C122.033 461.359 122.98 453.185 123.72 449.149C119.963 443.729 106.931 426.467 107.432 411.848C107.902 398.189 110.003 392.224 117.503 385.771C121.786 386.051 126.658 385.499 130.416 383.457C130.193 385.931 142.079 427.852 142.835 444.746C142.334 457.348 136.817 504.361 136.196 508.268C136.323 510.975 137.525 515.138 143.185 517.708C133.966 515.61 131.698 510.182 130.105 507.124Z" fill="#FAB69A"/>
<path fill-rule="evenodd" clip-rule="evenodd" d="M104.661 333.161C99.9165 333.145 98.0456 343.153 97.4087 354.69C96.7718 366.227 102.711 378.917 105.712 380.046C108.714 381.167 121.666 363.473 123.832 363.449C131.411 365.074 130.973 361.896 132.645 357.885C130.129 358.821 126.316 358.645 125.527 357.572C125.535 356.467 127.199 355.515 128.401 354.914C128.545 354.842 128.608 354.682 128.569 354.522C128.529 354.37 128.401 354.25 128.25 354.25C124.27 354.234 123.258 356.171 121.945 358.469C116.531 364.362 110.29 363.449 108.801 363.185C110.72 356.868 114.597 335.187 104.661 333.161Z" fill="#E97B43"/>
<path fill-rule="evenodd" clip-rule="evenodd" d="M136.553 335.259C133.393 332.905 119.302 324.794 103.841 332.905C100.02 345.763 110.13 369.502 109.43 383.913C113.681 386.035 123.768 387.044 130.407 383.449C132.613 360.19 142.676 351.928 136.553 335.259Z" fill="#F68A4E"/>
<path fill-rule="evenodd" clip-rule="evenodd" d="M132.827 333.761C128.282 335.146 126.188 346.267 128.942 357.484C131.697 368.701 138.719 380.078 141.911 380.262C145.104 380.454 171.24 370.086 173.302 369.422C176.876 370.527 181.796 371.215 182.791 370.839C183.922 369.614 185.681 364.466 185.992 361.351C183.858 362.993 175.348 363.561 174.289 362.776C173.971 361.72 175.451 359.142 176.94 357.524C177.051 357.404 177.067 357.236 176.988 357.1C176.908 356.964 176.757 356.892 176.598 356.932C171.431 358.149 170.436 362.04 169.855 364.626C163.056 364.786 146.823 366.587 145.318 366.78C145.334 360.166 141.163 332.64 132.827 333.761Z" fill="#FAB69A"/>
<path fill-rule="evenodd" clip-rule="evenodd" d="M119.548 332.032C119.548 332.032 123.059 331.832 126.435 330.503C133.44 327.732 129.739 311.119 127.724 309.662L118.155 312.841C118.155 312.841 115.074 320.935 115.074 321.504C115.074 322.072 111.738 331.872 119.548 332.032Z" fill="#FAB69A"/>
<path fill-rule="evenodd" clip-rule="evenodd" d="M164.473 364.922V364.986V365.002V365.074V365.146V365.17L164.481 365.242V365.25V365.258L164.489 365.347L164.497 365.395V365.419L164.505 365.467L164.513 365.547V365.571V365.587C164.52 365.651 164.528 365.723 164.536 365.803V365.819L164.544 365.891L164.552 365.955V365.987L164.568 366.083V366.099L164.584 366.227V366.243L164.592 366.283L164.608 366.387V366.395V366.403L164.632 366.547V366.555L164.64 366.604L164.656 366.708V366.716L164.672 366.82L164.688 366.924V366.932L164.704 367.044L164.719 367.156L164.727 367.212L164.735 367.276L164.751 367.388V367.396L164.783 367.564L164.799 367.636L164.815 367.74V367.756L164.839 367.885L164.847 367.925L164.863 368.013L164.879 368.117L164.887 368.141L164.911 368.269L164.919 368.301L164.934 368.397L164.95 368.493L164.958 368.525L164.982 368.653L164.99 368.677L165.014 368.781L165.03 368.869L165.038 368.909L165.062 369.045L165.07 369.069L165.094 369.182L165.11 369.27L165.118 369.318L165.149 369.454V369.47L165.173 369.598L165.189 369.678L165.205 369.742L165.237 369.878L165.269 370.014L165.285 370.086L165.301 370.158L165.333 370.294V370.302L165.364 370.439L165.38 370.503L165.396 370.583L165.428 370.711V370.727L165.484 370.855L165.5 370.911L165.524 370.999L165.555 371.119L165.563 371.143L165.595 371.279L165.603 371.327L165.627 371.423L165.651 371.535L165.659 371.567L165.691 371.704L165.699 371.736V371.752L165.739 371.92L165.746 371.944L165.754 371.984L165.786 372.12L165.794 372.144L165.826 372.256C166.184 373.625 166.59 374.898 166.988 375.787C160.596 377.612 145.056 381.84 141.736 381.079C138.416 380.326 129.428 365.282 127.183 355.595C124.938 345.915 124.189 340.495 124.189 340.495C124.189 340.495 125.193 337.973 126.57 336.836C127.947 335.699 132.278 333.986 132.278 333.986C132.453 333.897 132.636 333.825 132.819 333.769C133.385 333.689 133.934 333.745 134.459 333.922C135.192 334.162 135.884 334.626 136.545 335.267C142.397 341.015 145.326 361.239 145.326 366.788C146.512 366.636 156.822 365.483 164.473 364.922Z" fill="#F68A4E"/>
<path fill-rule="evenodd" clip-rule="evenodd" d="M130.862 335.098C131.204 338.013 126.722 342.24 126.754 346.556C126.778 349.614 130.87 353.529 128.354 356.379C125.966 359.086 118.888 356.403 115.752 357.388C112.615 358.373 111.803 361.824 108.921 361.656C106.039 361.487 103.881 358.813 101.851 357.724C99.8213 356.636 95.1641 356.54 94.6307 353.745C94.0973 350.951 99.686 343.905 99.1685 342.024C98.866 341.039 97.632 340.551 97.218 338.813C96.8439 336.764 105.641 333.169 106.509 325.451C107.034 320.751 106.763 313.858 109.207 309.086C112.679 302.312 125.862 296.468 128.633 311.071C122.089 325.563 130.44 332.272 130.862 335.098Z" fill="#C74442"/>
<path fill-rule="evenodd" clip-rule="evenodd" d="M114.271 451.607C109.59 444.113 106.047 437.892 103.428 432.56C96.6607 418.821 96 411.047 97.7036 402.953C100.084 391.608 108.937 386.604 109.438 383.937L109.462 383.921C111.309 384.834 114.239 385.539 117.503 385.755C125.241 390.927 132.741 426.379 129.986 446.868C128.999 458.333 125.432 471.535 120.942 482.192C117.941 489.325 114.685 497.308 113.411 500.166C110.887 499.83 108.212 498.941 105.8 497.916C102.759 496.619 100.14 495.09 98.8182 494.169C103.738 477.98 111.604 459.598 114.74 452.36C114.581 452.112 114.422 451.855 114.271 451.607Z" fill="#1D4593"/>
<path fill-rule="evenodd" clip-rule="evenodd" d="M137.199 500.278C133.17 500.214 129.922 499.702 127.446 498.677C125.209 490.718 123.904 483.385 123.211 476.875C123.044 475.346 122.916 473.857 122.813 472.416C122.033 461.351 122.98 453.177 123.72 449.141C119.963 443.721 106.931 426.459 107.432 411.84C107.902 398.181 110.003 392.216 117.503 385.763C121.786 386.043 126.658 385.491 130.416 383.449C130.193 385.867 141.522 425.859 142.763 443.481C143.217 443.929 145.239 492.752 146.688 499.79C143.146 500.15 139.985 500.326 137.199 500.278Z" fill="url(#paint6_linear)"/>
</g>
<g clip-path="url(#clip3)">
<path fill-rule="evenodd" clip-rule="evenodd" d="M634.224 429.885L628.893 430.149C629.686 427.952 629.879 425.084 629.486 422.258L635.017 421.844C636.432 423.842 635.081 428.758 634.224 429.885Z" fill="#F7A099"/>
<path fill-rule="evenodd" clip-rule="evenodd" d="M640.67 407.318L640.57 407.004C640.805 406.897 641.642 406.612 641.642 406.612C644.472 417.029 642.342 421.459 639.934 430.777C638.74 430.899 635.646 430.827 634.224 429.885C635.095 428.737 636.246 424.413 634.71 422.458C634.188 422.53 633.059 421.973 632.809 421.666L633.195 421.103C633.137 420.953 633.102 420.41 633.58 419.597C634.488 418.049 636.196 415.958 637.075 413.754C638.104 411.157 638.304 408.481 639.383 407.632C639.676 407.404 640.398 407.29 640.67 407.318Z" fill="#344053"/>
<path fill-rule="evenodd" clip-rule="evenodd" d="M577.967 369.917C580.926 370.567 605.724 405.82 619.602 424.927L614.357 427.674C614.357 427.674 595.333 421.374 576.366 398.792C562.752 412.184 551.239 417.499 549.102 416.615C547.009 415.751 526.377 404.585 532.83 405.863C543.45 389.424 563.181 371.737 577.967 369.917Z" fill="#475160"/>
<path fill-rule="evenodd" clip-rule="evenodd" d="M564.396 425.376C586.093 433.367 612.606 431.077 631.366 430.199C632.366 427.881 632.48 424.327 631.709 421.267C615.443 415.823 553.269 405.67 536.403 405.955C524.74 405.613 513.256 406.248 502.007 408.253C501.878 445.611 546.544 438.668 564.396 425.376Z" fill="#344053"/>
<path fill-rule="evenodd" clip-rule="evenodd" d="M502 408.26C503.436 372.087 515.657 351.075 524.333 342.513C528.592 345.046 533.98 344.29 536.117 348.777C544.171 365.687 535.26 382.753 536.325 405.898C528.435 407.454 511.598 406.94 502 408.26Z" fill="#EAF7FE"/>
<path fill-rule="evenodd" clip-rule="evenodd" d="M535.881 327.144C537.475 330.905 539.912 334.836 540.891 336.484C540.569 337.026 538.782 337.411 538.539 337.69C538.297 337.968 538.611 341.835 538.096 342.463C537.532 342.655 536.388 342.591 535.081 342.377C534.959 343.355 534.559 346.423 534.48 347.914C531.25 346.908 525.426 344.09 524.475 343.39C524.204 341.956 524.018 340.33 524.046 339.901C522.303 333.366 522.524 330.027 523.596 328.5C525.397 325.953 532.043 322.628 535.881 327.144Z" fill="url(#paint7_linear)"/>
<path fill-rule="evenodd" clip-rule="evenodd" d="M535.095 342.377C535.031 342.877 534.959 343.704 534.895 344.589C532.894 343.961 529.599 341.179 528.935 340.166C529.792 341.072 532.686 341.992 535.095 342.377Z" fill="#D49682"/>
<path fill-rule="evenodd" clip-rule="evenodd" d="M520.481 350.154C516.893 354.178 517.951 363.361 532.294 375.354C538.468 381.012 550.41 387.091 551.861 387.79C558.614 376.653 533.709 344.817 520.481 350.154Z" fill="#F4BBA9"/>
<path fill-rule="evenodd" clip-rule="evenodd" d="M544.65 364.046C541.863 365.323 535.996 368.476 530.958 374.213C517.887 362.776 517.008 354.05 520.481 350.154C528.549 346.894 538.504 355.755 544.65 364.046Z" fill="#EAF7FE"/>
<path fill-rule="evenodd" clip-rule="evenodd" d="M524.14 333.309C522.432 334.593 524.433 337.518 525.355 338.546L524.09 340.565C518.766 336.548 514.878 325.232 520.295 321.28C519.888 317.727 527.292 314.466 529.207 316.77C532.537 314.744 536.553 317.334 536.804 318.718C539.705 317.391 543.164 324.426 537.533 326.809C537.525 326.809 537.525 326.816 537.518 326.816C535.017 327.865 531.558 328.108 530.186 328.115C529.943 328.721 530.357 331.126 530.508 331.682C530.014 331.832 528.421 332.003 527.971 331.982C528.071 332.453 529.235 335.778 529.75 336.812C528.542 335.685 526.17 331.782 524.14 333.309Z" fill="#1D4593"/>
<path d="M579.534 336.719L570.743 351.013L572.15 351.876L580.94 337.581L579.534 336.719Z" fill="#784D9C"/>
<path fill-rule="evenodd" clip-rule="evenodd" d="M551.861 387.79C555.492 385.593 567.898 368.162 572.879 353.472C573.422 353.522 574.844 353.286 576.031 353.172C576.474 352.523 577.181 352.152 578.089 350.646C577.924 348.634 577.567 348.492 577.396 347.307C577.96 344.032 578.66 342.313 578.096 342.227C577.567 342.149 576.474 344.76 575.437 347.457C574.23 348.463 573.658 348.584 572.993 348.791C573.158 348.292 573.594 347.593 573.779 347.108C573.429 346.986 572.186 347.421 571.957 347.621C571.035 348.413 570.463 351.11 570.27 352.002C566.34 354.556 551.747 368.127 544.021 378.172C544.114 380.855 549.796 382.803 551.861 387.79Z" fill="#F4BBA9"/>
</g>
<g clip-path="url(#clip4)">
<path fill-rule="evenodd" clip-rule="evenodd" d="M479.431 253.182L473.077 261.186L502.392 284.945L508.745 276.941L479.431 253.182Z" fill="url(#paint8_linear)"/>
<path fill-rule="evenodd" clip-rule="evenodd" d="M479.431 253.182L473.078 261.186L470 252L479.431 253.182Z" fill="#F6E7AB"/>
<path fill-rule="evenodd" clip-rule="evenodd" d="M470.695 254.071L470 252L472.134 252.265C471.985 252.602 471.787 252.931 471.539 253.247C471.276 253.569 470.993 253.849 470.695 254.071Z" fill="#21194E"/>
<path fill-rule="evenodd" clip-rule="evenodd" d="M508.745 276.941L502.392 284.945L503.157 285.568L509.511 277.565L508.745 276.941Z" fill="url(#paint9_linear)"/>
<path fill-rule="evenodd" clip-rule="evenodd" d="M513.462 283.956L510.193 288.076C509.342 289.143 507.782 289.315 506.725 288.463L503.158 285.568L509.512 277.565L513.079 280.452C514.135 281.312 514.305 282.888 513.462 283.956Z" fill="#F69371"/>
</g>
<defs>
<linearGradient id="paint0_linear" x1="484.262" y1="437.013" x2="175.17" y2="130.996" gradientUnits="userSpaceOnUse">
<stop stop-color="#F4F4F4"/>
<stop offset="1" stop-color="white"/>
</linearGradient>
<linearGradient id="paint1_linear" x1="222.823" y1="82.5504" x2="225.483" y2="163.24" gradientUnits="userSpaceOnUse">
<stop stop-color="#2CB995"/>
<stop offset="1" stop-color="white"/>
</linearGradient>
<linearGradient id="paint2_linear" x1="381.457" y1="85.1253" x2="384.118" y2="165.815" gradientUnits="userSpaceOnUse">
<stop stop-color="#2CB995"/>
<stop offset="1" stop-color="white"/>
</linearGradient>
<linearGradient id="paint3_linear" x1="420.159" y1="85.1253" x2="422.819" y2="165.815" gradientUnits="userSpaceOnUse">
<stop stop-color="#2CB995"/>
<stop offset="1" stop-color="white"/>
</linearGradient>
<linearGradient id="paint4_linear" x1="261.525" y1="82.3359" x2="264.185" y2="163.025" gradientUnits="userSpaceOnUse">
<stop stop-color="#2CB995"/>
<stop offset="1" stop-color="white"/>
</linearGradient>
<linearGradient id="paint5_linear" x1="158.765" y1="21.6684" x2="178.311" y2="21.6684" gradientUnits="userSpaceOnUse">
<stop stop-color="#EFB19C"/>
<stop offset="1" stop-color="#F4BBA9"/>
</linearGradient>
<linearGradient id="paint6_linear" x1="107.408" y1="441.869" x2="146.683" y2="441.869" gradientUnits="userSpaceOnUse">
<stop stop-color="#264FA2"/>
<stop offset="1" stop-color="#3C62AE"/>
</linearGradient>
<linearGradient id="paint7_linear" x1="522.776" y1="336.414" x2="540.894" y2="336.414" gradientUnits="userSpaceOnUse">
<stop stop-color="#EFB19C"/>
<stop offset="1" stop-color="#F4BBA9"/>
</linearGradient>
<linearGradient id="paint8_linear" x1="494.087" y1="265.164" x2="490.141" y2="269.907" gradientUnits="userSpaceOnUse">
<stop stop-color="#96D9F3"/>
<stop offset="0.2249" stop-color="#92D8F2"/>
<stop offset="0.4251" stop-color="#85D4F2"/>
<stop offset="0.6159" stop-color="#6DCFF0"/>
<stop offset="0.8009" stop-color="#44C7EF"/>
<stop offset="0.9803" stop-color="#00BDED"/>
<stop offset="1" stop-color="#00BCED"/>
</linearGradient>
<linearGradient id="paint9_linear" x1="502.389" y1="281.253" x2="509.51" y2="281.253" gradientUnits="userSpaceOnUse">
<stop stop-color="#E3E3E3"/>
<stop offset="1" stop-color="white"/>
</linearGradient>
<clipPath id="clip0">
<rect width="127.878" height="119.523" fill="white" transform="translate(42.5234 209.628) rotate(-25.0942)"/>
</clipPath>
<clipPath id="clip1">
<rect width="95" height="160" fill="white" transform="translate(103)"/>
</clipPath>
<clipPath id="clip2">
<rect width="95" height="221" fill="white" transform="translate(91 302)"/>
</clipPath>
<clipPath id="clip3">
<rect width="141" height="120" fill="white" transform="translate(502 316)"/>
</clipPath>
<clipPath id="clip4">
<rect width="44" height="37" fill="white" transform="translate(470 252)"/>
</clipPath>
</defs>
</svg>
