<svg xmlns="http://www.w3.org/2000/svg" width="40" height="40" viewBox="0 0 40 40" fill="none"><rect x="3" y="3" width="34" height="35" fill="white"/><path d="M36.4 0H3.6C1.6 0 0 1.6 0 3.6V36.4C0 38.4 1.6 40 3.6 40H36.4C38.4 40 40 38.4 40 36.4V3.6C40 1.6 38.4 0 36.4 0ZM12.4 34.5C12.4 35.1 11.9 35.6 11.3 35.6H6.8C6.3 35.6 5.8 35.1 5.8 34.5V15.7C5.8 15.2 6.3 14.7 6.8 14.7H11.3C11.9 14.7 12.4 15.2 12.4 15.7V34.5ZM9.1 12.9C6.7 12.9 4.8 11 4.8 8.7 4.8 6.3 6.7 4.4 9.1 4.4 11.4 4.4 13.3 6.3 13.3 8.7 13.3 11 11.4 12.9 9.1 12.9ZM35.8 34.6C35.8 35.2 35.4 35.6 34.8 35.6H30C29.5 35.6 29.1 35.2 29.1 34.6V25.8C29.1 24.5 29.4 20 25.6 20 22.7 20 22.1 23.1 21.9 24.5V34.6C21.9 35.2 21.5 35.6 21 35.6H16.3C15.8 35.6 15.3 35.2 15.3 34.6V15.7C15.3 15.1 15.8 14.7 16.3 14.7H21C21.5 14.7 21.9 15.1 21.9 15.7V17.3C23 15.7 24.7 14.4 28.1 14.4 35.8 14.4 35.8 21.6 35.8 25.5V34.6Z" fill="#0077B7"/></svg>