<svg data-v-668cbd20="" xmlns="http://www.w3.org/2000/svg" width="160" height="40" viewBox="0 0 480 120">
    <defs data-v-668cbd20="">
        <linearGradient data-v-668cbd20="" y1="50.2" x2="100.3" y2="50.2" id="lg1">
            <stop data-v-668cbd20="" stop-color="#263546" offset="5%"></stop>
            <stop data-v-668cbd20="" stop-color="#263546" offset="95%"></stop>
        </linearGradient>
        <linearGradient data-v-668cbd20="" id="lg2" x1="-6.6" y1="96.2" x2="72.7" y2="-3.8">
            <stop data-v-668cbd20="" stop-color="#1D8EFF" offset="5%"></stop>
            <stop data-v-668cbd20="" stop-color="#1D8EFF" offset="95%"></stop>
        </linearGradient>
    </defs>
    <g data-v-668cbd20="" fill="#000">
        <path data-v-668cbd20="" d="M16.1 0.1C8 1.6 1.7 8 0.2 16.1L0.2 103.4C1.9 112.7 10.1 119.7 19.9 119.7L99.9 119.7C110.9 119.7 119.9 110.8 119.9 99.7L119.9 19.7C119.9 10 112.9 1.8 103.7 0.1L16.1 0.1Z" fill="url(#lg1)"></path>
        <path data-v-668cbd20="" d="M73.3 39.4L71.8 69.8C71.8 69.8 91.4 68.3 101 60.9 116.1 49.4 114.7 33.7 112.2 17.7 112 16.5 111.7 15.3 111.4 14.1 108 13.6 104.5 13.5 100.9 14.1 87 16.3 76.5 26.6 73.3 39.4" fill="#FFF"></path>
        <path data-v-668cbd20="" d="M102.1 36.5C116.6 33.7 120.2 41.3 120.2 41L120.2 9.2C120.2 4.1 116.1 0.1 111.1 0.1L62.1 0.1 62.1 71 77.5 50.1C77.5 50.1 87.9 39.1 102.1 36.5" fill="#FFD512"></path>
        <path data-v-668cbd20="" d="M16.1 0.1C8 1.6 1.7 8 0.2 16.1L0.2 103.4C1.4 109.5 5.3 114.7 10.6 117.5 20.1 103.3 34.5 91.9 51.1 84.6 72.1 75.5 85.7 61 85.7 40.1 85.7 17.4 73.9 1.9 70.2 0.1L16.1 0.1Z" fill="url(#lg2)"></path>
        <path data-v-668cbd20="" d="M51.1 0.1C46.9 3.3 44.1 8.4 44.1 14.2 44.1 24 52.1 31.9 61.9 31.9 71.7 31.9 79.6 24 79.6 14.2 79.6 13.6 79.6 13.1 79.5 12.5 76.8 6.8 73.5 2.3 70.2 0.1L51.1 0.1Z" fill="#FFF"></path>
        <path data-v-668cbd20="" d="M53.1 11.1C51.4 16 54 21.3 58.8 23 63.7 24.6 68.9 22.1 70.6 17.2 70.6 17.2 70.7 17.2 70.7 17.1 70.3 17.1 69.9 17 69.5 16.9 66.5 15.8 64.9 12.5 66 9.5 66.3 8.4 66.9 7.6 67.7 6.9 66.9 6.3 65.9 5.8 64.9 5.4 63.9 5.1 62.9 4.9 61.9 4.9 58 4.9 54.4 7.3 53.1 11.1" fill="#0F5065"></path>
        <path data-v-668cbd20="" d="M203.3 33L215 33 215 90 201.9 90 201.8 63.9 191 90 181.5 90 170.6 64.2 170.6 90 157.6 90 157.6 33 169.3 33 186.4 71.9 203.3 33ZM268.9 90L263.9 78.2 238.6 78.2 233.6 90 218.5 90 245.2 33 257 33 283.7 90 268.9 90ZM243.5 67L259 67 251.3 49 243.5 67ZM314.2 90.7C308.3 90.7 303.1 89.5 298.7 87.1 294.3 84.7 290.9 81.2 288.5 76.8 286.2 72.4 285 67.3 285 61.4 285 55.7 286.2 50.6 288.5 46.2 290.9 41.8 294.3 38.4 298.7 36 303.1 33.5 308.3 32.3 314.2 32.3 317.9 32.3 321.5 32.9 325 34 328.5 35.1 331.3 36.6 333.5 38.6L328.9 49.2C324.3 45.8 319.5 44.2 314.5 44.2 309.9 44.2 306.4 45.6 303.9 48.5 301.5 51.4 300.3 55.7 300.3 61.4 300.3 67.2 301.5 71.5 303.9 74.5 306.4 77.4 309.9 78.9 314.5 78.9 319.5 78.9 324.3 77.2 328.9 73.8L333.5 84.5C331.3 86.4 328.5 87.9 325 89 321.5 90.2 317.9 90.7 314.2 90.7ZM465.6 33L479.8 33 459.4 90 447.5 90 435.6 56.2 423.4 90 411.5 90 391.2 33 406.5 33 418.1 69 430.9 33 441.1 33 453.3 69.6 465.6 33Z" class="fill"></path>
        <path data-v-668cbd20="" d="M386.1 90L381.1 78.2 355.8 78.2 350.7 90 335.7 90 362.3 33 374.2 33 400.9 90 386.1 90ZM360.7 67L376.2 67 368.4 49 360.7 67Z" class="fill"></path>
    </g>
</svg>