<svg width="1440" height="802" viewBox="0 0 1440 802" fill="none" xmlns="http://www.w3.org/2000/svg">
<g opacity="0.9">
<path opacity="0.4" fill-rule="evenodd" clip-rule="evenodd" d="M323.299 120.085H360.837C360.837 120.085 358.573 108.398 347.249 111.207C347.249 111.207 338.868 87.5152 330.623 111.207C330.623 111.207 323.602 99.4739 318.031 99.3836C311.721 99.3361 307.751 105.06 307.662 110.5C305.446 111.598 303.871 115.998 303.871 115.998C297.618 114.465 296.367 120.841 296.367 120.841H320.004C321.356 120.841 322.447 120.559 323.299 120.085Z" fill="white"/>
<path opacity="0.4" fill-rule="evenodd" clip-rule="evenodd" d="M395.58 195.751H433.118C433.118 195.751 430.854 184.065 419.53 186.873C419.53 186.873 411.149 163.182 402.905 186.873C402.905 186.873 395.883 175.14 390.312 175.05C384.002 175.003 380.032 180.726 379.944 186.166C377.727 187.265 376.152 191.664 376.152 191.664C369.899 190.132 368.648 196.507 368.648 196.507H392.285C393.638 196.507 394.728 196.226 395.58 195.751Z" fill="white"/>
<path opacity="0.4" fill-rule="evenodd" clip-rule="evenodd" d="M1098.04 36.5123H1135.57C1135.57 36.5123 1133.31 24.8258 1121.99 27.6345C1121.99 27.6345 1113.61 3.94297 1105.36 27.6345C1105.36 27.6345 1098.34 15.9017 1092.77 15.8113C1086.46 15.7638 1082.49 21.4876 1082.4 26.9276C1080.18 28.0265 1078.61 32.4255 1078.61 32.4255C1072.36 30.8932 1071.11 37.2687 1071.11 37.2687H1094.74C1096.09 37.2687 1097.19 36.9869 1098.04 36.5123Z" fill="white"/>
<path opacity="0.4" fill-rule="evenodd" clip-rule="evenodd" d="M1339.72 163H1377.25C1377.25 163 1374.99 151.313 1363.67 154.122C1363.67 154.122 1355.29 130.43 1347.04 154.122C1347.04 154.122 1340.02 142.389 1334.45 142.299C1328.14 142.251 1324.17 147.975 1324.08 153.415C1321.86 154.514 1320.29 158.913 1320.29 158.913C1314.04 157.38 1312.79 163.756 1312.79 163.756H1336.42C1337.77 163.756 1338.87 163.474 1339.72 163Z" fill="white"/>
<path opacity="0.4" fill-rule="evenodd" clip-rule="evenodd" d="M97.5236 177.308H73.8867C73.8867 177.308 75.1371 170.933 81.39 172.465C81.39 172.465 86.0179 159.54 90.5703 172.465C90.5703 172.465 94.4473 166.064 97.5236 166.015C104.152 165.966 106.103 177.308 97.5236 177.308Z" fill="white"/>
<path opacity="0.4" fill-rule="evenodd" clip-rule="evenodd" d="M515.291 20.7013H552.829C552.829 20.7013 550.565 9.01478 539.241 11.8235C539.241 11.8235 530.86 -11.8681 522.616 11.8235C522.616 11.8235 515.594 0.0906417 510.023 0.000293603C503.713 -0.0472031 499.743 5.67634 499.655 11.1163C497.438 12.2148 495.863 16.6144 495.863 16.6144C489.61 15.0822 488.359 21.4577 488.359 21.4577H511.996C513.349 21.4577 514.439 21.1759 515.291 20.7013Z" fill="white"/>
<g style="mix-blend-mode:multiply" opacity="0.4">
<path d="M-56.1821 281.852C-205.239 285.174 -272.824 315.611 -287.985 330.415L-285.193 1004.79L1438.09 1004.79L1440.09 178.117C1372.58 198.452 1300.54 277.864 1051.3 245.215C868.517 221.272 798.707 273.683 558.871 302.399C319.035 331.116 130.139 277.7 -56.1821 281.852Z" fill="url(#paint0_linear)"/>
</g>
<g style="mix-blend-mode:multiply" opacity="0.8">
<path d="M-55.3519 289.177C-204.437 287.569 -272.991 315.755 -288.633 330.049V1004.47H1441.53V234.905C1373.38 252.996 1300.76 330.049 1052.73 289.177C870.842 259.204 799.341 309.278 558.686 330.049C318.032 350.82 131.005 291.187 -55.3519 289.177Z" fill="url(#paint1_linear)"/>
</g>
</g>
<defs>
<linearGradient id="paint0_linear" x1="159.875" y1="345.096" x2="1194.79" y2="345.083" gradientUnits="userSpaceOnUse">
<stop offset="0.0312494" stop-color="#0065C3"/>
<stop offset="1" stop-color="#73C4FF"/>
</linearGradient>
<linearGradient id="paint1_linear" x1="753.004" y1="992.5" x2="753.044" y2="-270.5" gradientUnits="userSpaceOnUse">
<stop offset="0.0312494" stop-color="#2EA4F9"/>
<stop offset="1" stop-color="#62E0FC" stop-opacity="0.48"/>
</linearGradient>
</defs>
</svg>
